PathFileType	4	(X/Y/Z)	C:\Users\Basilio\Documents\Thesis Gigler\squatting_fais\c3dfiles\076\SLS_back_pre4\markers_experimental.trc
DataRate	CameraRate	NumFrames	NumMarkers	Units	OrigDataRate	OrigDataStartFrame	OrigNumFrames
200.000000	200.000000	4	61	mm	200.000000	680	1814
Frame#	Time	FHD			LBHD			RBHD			C7			T10			CLAV			LSHO			LUUPA			LMUPA			LDUPA			LLEP			LMEP			LRAD			LUL			LRFIN			RSHO			RUPA1			RMUPA			RDUPA			RLEP			RMEP			RRAD			RUL			RUFIN			LASI			RASI			USACR			LSACR			RSACR			LTHI1			LTHI2			LTHI3			LTHI4			LLFC			LMFC			LTIB1			LTIB2			LTIB3			LTIB4			LLMAL			LMMAL			LHEE			LMT1			LMT2			LMT5			RTHI			RTHI2			RTHI3			RTHI4			RLFC			RMFC			RTIB1			RTIB2			RTIB3			RTIB4			RLMAL			RMMAL			RHEE			RMT1			RMT2			RMT5			
		X1	Y1	Z1	X2	Y2	Z2	X3	Y3	Z3	X4	Y4	Z4	X5	Y5	Z5	X6	Y6	Z6	X7	Y7	Z7	X8	Y8	Z8	X9	Y9	Z9	X10	Y10	Z10	X11	Y11	Z11	X12	Y12	Z12	X13	Y13	Z13	X14	Y14	Z14	X15	Y15	Z15	X16	Y16	Z16	X17	Y17	Z17	X18	Y18	Z18	X19	Y19	Z19	X20	Y20	Z20	X21	Y21	Z21	X22	Y22	Z22	X23	Y23	Z23	X24	Y24	Z24	X25	Y25	Z25	X26	Y26	Z26	X27	Y27	Z27	X28	Y28	Z28	X29	Y29	Z29	X30	Y30	Z30	X31	Y31	Z31	X32	Y32	Z32	X33	Y33	Z33	X34	Y34	Z34	X35	Y35	Z35	X36	Y36	Z36	X37	Y37	Z37	X38	Y38	Z38	X39	Y39	Z39	X40	Y40	Z40	X41	Y41	Z41	X42	Y42	Z42	X43	Y43	Z43	X44	Y44	Z44	X45	Y45	Z45	X46	Y46	Z46	X47	Y47	Z47	X48	Y48	Z48	X49	Y49	Z49	X50	Y50	Z50	X51	Y51	Z51	X52	Y52	Z52	X53	Y53	Z53	X54	Y54	Z54	X55	Y55	Z55	X56	Y56	Z56	X57	Y57	Z57	X58	Y58	Z58	X59	Y59	Z59	X60	Y60	Z60	X61	Y61	Z61	

681	3.4	-189.0425720214844	1629.628173828125	-968.140075683594	-332.5768432617188	1560.81884765625	-1059.334838867188	-313.8900146484376	1566.81640625	-908.3483886718752	-378.4728698730469	1446.562377929688	-981.5557250976565	-434.2278442382814	1134.113891601563	-996.1289062500002	-250.8580780029297	1361.166748046875	-988.9077148437502	-320.2386474609376	1403.742797851563	-1148.100219726563	-228.4566802978516	1279.861083984375	-1258.491333007813	-182.3572845458985	1279.985961914063	-1239.046264648438	-180.7566375732422	1241.414184570313	-1288.118286132813	-148.4664154052735	1199.238891601563	-1309.101928710938	-153.6396636962891	1142.256713867188	-1249.907958984375	92.31824493408205	1139.235961914063	-1265.780883789063	90.87892150878908	1135.039428710938	-1330.923828125	173.1534423828125	1141.796752929688	-1270.983642578125	-308.5719299316407	1385.907104492188	-829.9470825195315	-230.8904113769532	1242.119873046875	-728.8373413085939	-183.0291595458985	1255.018188476563	-733.9134521484376	-177.9761657714844	1198.508056640625	-711.5650634765626	-118.8476638793946	1165.50634765625	-699.0849609375001	-128.7750549316407	1121.569580078125	-766.6808471679689	111.7882461547852	1107.130615234375	-780.4852294921877	111.266342163086	1097.084228515625	-713.9711914062501	189.7984313964844	1100.205200195313	-773.0733032226565	-280.2732543945313	944.1389770507815	-1096.754028320313	-283.2784423828126	946.497741699219	-880.4805908203127	-444.3939208984376	1022.355529785156	-991.1697998046877	-453.305145263672	993.5328369140627	-1019.06787109375	-454.184295654297	992.461120605469	-962.3336181640627	-355.3455810546876	787.3137817382815	-1158.076049804688	-324.1265563964844	708.4417114257814	-1152.185180664063	-274.9884948730469	713.3818359375001	-1142.564208984375	-351.2071838378907	656.8031005859376	-1133.278564453125	-338.3164978027344	498.0731201171876	-1099.739013671875	-311.2708435058594	501.7424926757814	-983.478454589844	-309.5157775878907	357.3601684570313	-1017.6669921875	-329.6027526855469	299.1387329101563	-1081.790405273438	-302.7026977539063	304.6215209960938	-1042.938354492188	-322.7828979492188	232.0004119873047	-1005.93701171875	-383.5103454589844	108.3914108276367	-1053.055419921875	-358.5329284667969	120.0659408569336	-972.738708496094	-441.9491271972657	96.23219299316409	-1005.931213378906	-240.4384460449219	51.32058715820314	-992.4888305664065	-234.619613647461	50.89174652099611	-1031.139526367188	-259.1491394042969	45.54089736938477	-1081.305419921875	-302.1871948242188	709.7422485351564	-791.6306762695315	-247.2876129150391	670.1646728515626	-783.326599121094	-215.2688140869141	682.1411743164064	-790.7330322265627	-245.133773803711	587.7006835937501	-795.185241699219	-230.9809112548829	537.8441162109376	-799.7000122070315	-195.7226257324219	527.1101684570314	-907.5089111328127	-219.2652130126954	401.5364685058595	-806.873229980469	-312.2207031250001	345.6876831054688	-795.3591918945315	-267.8643798828126	329.7610168457032	-797.933532714844	-263.2269897460938	280.6156005859376	-829.5994262695315	-368.2158813476563	160.5379028320313	-810.5283203125002	-325.5487365722657	169.7648010253907	-886.4009399414065	-419.3009643554689	156.9954528808594	-864.7001953125002	-230.2254486083985	75.09642028808595	-857.6030883789065	-230.5688629150391	74.51626586914064	-811.1513671875002	-272.3258972167969	62.70604705810548	-765.8423461914064	
682	3.405	-188.973617553711	1629.45166015625	-968.6044921875002	-332.2193298339844	1561.258178710938	-1059.895874023438	-313.9128112792969	1566.823364257813	-908.8252563476565	-378.4905395507813	1446.636474609375	-982.0911254882815	-434.3500366210939	1134.061279296875	-996.7183837890627	-250.7810211181641	1361.079345703125	-989.4058837890627	-320.2593688964844	1403.912475585938	-1148.450439453125	-228.1052398681641	1281.314453125	-1258.97021484375	-181.597640991211	1281.501342773438	-1239.365234375	-179.0282897949219	1243.071044921875	-1288.3701171875	-146.2356719970703	1201.345825195313	-1309.60693359375	-151.7506408691407	1144.654418945313	-1250.796630859375	94.63785552978517	1143.105224609375	-1266.805053710938	92.78265380859376	1138.68212890625	-1332.088989257813	175.6050720214844	1145.866577148438	-1272.056274414063	-308.5344238281251	1386.031982421875	-830.5466308593752	-229.8332519531251	1242.918090820313	-729.5065307617189	-182.0931549072266	1256.185424804688	-734.8167114257814	-176.5976867675782	1199.612182617188	-712.5840454101564	-117.1973648071289	1167.006103515625	-700.2320556640626	-125.9562225341797	1123.739624023438	-769.069030761719	113.7960510253907	1110.01708984375	-781.389343261719	113.1589584350586	1099.840576171875	-715.0759887695314	192.1642456054688	1103.726806640625	-774.259460449219	-280.3141479492188	943.9092407226565	-1097.026977539063	-283.8632812500001	946.763122558594	-880.9360351562502	-444.8039855957032	1022.418151855469	-991.796081542969	-453.5120544433595	993.539489746094	-1019.728271484375	-454.7054748535157	992.597839355469	-962.934753417969	-355.3653259277344	787.1467895507815	-1158.42236328125	-324.1114807128907	708.2427978515626	-1152.379150390625	-274.8951416015626	713.3892822265626	-1142.7607421875	-351.1079101562501	656.6992187500001	-1133.575561523438	-337.7912292480469	498.0100708007814	-1099.920654296875	-311.0022888183594	501.7684020996095	-983.6138305664065	-309.7564086914063	357.5807495117188	-1017.664245605469	-329.0845031738282	299.0668640136719	-1081.802368164063	-302.4240722656251	304.5701599121094	-1042.782470703125	-322.3708801269532	231.7671051025391	-1005.906494140625	-383.4901733398438	108.4182586669922	-1052.98388671875	-358.5394592285157	120.0862731933594	-972.6376953125002	-441.6710815429689	96.11650848388675	-1005.827880859375	-240.5027008056641	51.30103683471681	-992.4593505859377	-234.6277465820313	50.9533157348633	-1031.09228515625	-259.2361145019532	45.66475296020509	-1081.253540039063	-300.9690551757813	710.4609375000001	-791.8648071289065	-245.7006072998047	671.1562500000001	-783.659851074219	-213.718978881836	683.6142578125001	-791.5147094726565	-242.8891296386719	588.7249755859376	-795.6243896484377	-228.6707000732422	539.2039184570314	-800.0379028320315	-193.6068115234376	528.2930297851564	-907.9875488281252	-218.6541442871094	402.9366760253907	-807.7579345703127	-312.1909179687501	348.3561706542969	-796.4151611328127	-267.9597167968751	331.8137817382813	-798.9566650390627	-263.8277893066407	282.5396423339844	-830.577819824219	-370.4793701171876	164.1578826904297	-811.8936767578127	-327.8276977539063	172.875473022461	-887.7569580078127	-421.6228637695314	160.8339538574219	-866.1724243164065	-233.5809783935547	77.1830520629883	-858.9772949218752	-233.597885131836	77.03648376464845	-812.692321777344	-275.6672973632813	65.23958587646486	-767.3435668945314	
683	3.41	-188.9114532470703	1629.337524414063	-969.1298828125002	-332.6144714355469	1560.591552734375	-1060.031494140625	-313.8948364257813	1566.801879882813	-909.2966308593752	-378.5269470214844	1446.655395507813	-982.5295410156252	-434.6132812500001	1134.06103515625	-997.1651611328127	-250.996810913086	1361.061889648438	-990.0603637695315	-320.3508605957032	1404.054077148438	-1148.791748046875	-227.2950744628907	1282.634521484375	-1259.589965820313	-180.7899932861328	1283.316040039063	-1239.808227539063	-177.722885131836	1245.011840820313	-1288.899780273438	-145.5057373046875	1203.595581054688	-1310.312866210938	-149.7223663330078	1146.466918945313	-1251.4150390625	96.80043029785159	1146.995971679688	-1267.973754882813	94.36526489257814	1142.32958984375	-1332.9912109375	177.7350616455078	1150.04443359375	-1273.3935546875	-308.4344482421876	1386.147338867188	-831.120544433594	-228.8859405517579	1243.76513671875	-730.2717285156251	-181.1948547363282	1257.519409179688	-735.6359863281251	-175.2834930419922	1200.820190429688	-713.4721069335939	-115.7388000488282	1168.69970703125	-701.1826171875001	-125.597640991211	1124.006713867188	-768.668395996094	115.6491165161133	1112.728149414063	-782.454528808594	115.0818176269532	1102.609497070313	-716.0505981445314	194.1499328613282	1107.160278320313	-775.1574707031252	-280.6791687011719	943.9636840820315	-1097.4091796875	-284.3956604003907	946.9995117187502	-881.3486328125002	-445.246551513672	1022.332641601563	-992.3574829101565	-453.8583374023439	993.6004638671877	-1020.396789550781	-455.1760864257814	992.707214355469	-963.555847167969	-355.5213623046876	786.9190673828127	-1158.793701171875	-323.9048156738282	708.2213745117189	-1152.670288085938	-274.7346801757813	713.3505859375001	-1142.978271484375	-350.8797302246094	656.4418945312501	-1133.765502929688	-337.3220214843751	497.8497009277345	-1100.062744140625	-310.6509399414063	501.8572387695314	-983.7463378906252	-309.4311218261719	357.6723937988282	-1017.691955566406	-328.7127075195313	299.0343322753907	-1081.789428710938	-302.1835937500001	304.5659790039063	-1042.66162109375	-322.3756408691407	231.6048736572266	-1006.032958984375	-383.3858337402344	108.4399490356446	-1052.929077148438	-358.5577087402344	120.092269897461	-972.5513916015627	-441.6994018554689	96.12713623046878	-1005.814514160156	-240.4959106445313	51.23546600341798	-992.449401855469	-234.5975036621094	51.04021453857423	-1031.084106445313	-259.2524108886719	45.73345565795899	-1081.1484375	-299.6083679199219	711.1442871093751	-792.1735839843752	-243.9550170898438	672.5820922851564	-784.0811767578127	-212.2240753173829	684.9409179687501	-792.0493774414065	-240.723373413086	589.9864501953126	-795.9578247070315	-226.4136352539063	540.6770019531251	-800.6082153320315	-192.4768676757813	529.4775390625001	-908.3586425781252	-217.6150970458985	404.4654541015626	-808.238220214844	-312.2956542968751	351.0189819335938	-797.371032714844	-268.1559143066407	334.0005798339844	-800.0596313476565	-264.7478942871094	284.5800170898438	-831.6947021484377	-372.9774169921876	167.7689514160157	-813.3616333007815	-329.7259826660157	175.3549957275391	-889.2124023437502	-424.1340942382814	165.3292541503907	-867.6088867187502	-237.0760040283204	79.43520355224611	-860.6169433593752	-236.9958496093751	79.10630035400392	-814.2238769531252	-279.1228027343751	67.89220428466798	-768.8663330078127	
684	3.415	-188.8865661621094	1629.276977539063	-969.6898193359377	-332.5659179687501	1560.586669921875	-1060.585815429688	-313.8726806640626	1566.8017578125	-909.779235839844	-378.5254211425782	1446.662231445313	-982.9013671875002	-434.9094543457032	1134.087280273438	-997.7771606445315	-251.108383178711	1361.020263671875	-990.5966796875002	-320.2814025878907	1404.22998046875	-1149.073120117188	-226.4362487792969	1283.930541992188	-1259.885864257813	-179.937255859375	1284.927856445313	-1240.068725585938	-176.7627563476563	1246.8388671875	-1289.373413085938	-143.9918212890625	1205.76123046875	-1310.88427734375	-147.9580078125	1148.366088867188	-1252.068237304688	98.75898742675784	1150.716552734375	-1268.929565429688	96.47537231445315	1146.055541992188	-1334.18505859375	179.629867553711	1154.265991210938	-1274.655517578125	-308.3529052734376	1386.257080078125	-831.6757812500002	-228.0137786865235	1244.587890625	-730.9523315429689	-180.366195678711	1258.586791992188	-736.4592895507814	-174.0193939208985	1201.9638671875	-714.3039550781251	-114.0668182373047	1170.2509765625	-702.1961669921876	-123.9707412719727	1125.595581054688	-769.4187622070315	117.4450302124024	1115.7119140625	-783.562683105469	116.8091278076172	1105.306396484375	-717.1242065429689	195.9669647216797	1110.269775390625	-776.1877441406252	-280.9247436523438	943.918640136719	-1097.747924804688	-284.8794250488282	947.2815551757815	-881.7290649414065	-445.5165100097657	1022.354248046875	-993.0041503906252	-454.239227294922	993.597595214844	-1020.962341308594	-455.6817321777345	992.6080322265627	-964.0640869140627	-355.5225219726563	786.6966552734377	-1159.0390625	-323.7328796386719	708.1034545898439	-1152.89111328125	-274.6377868652344	713.3382568359376	-1143.313110351563	-350.5846862792969	656.3089599609376	-1134.058227539063	-336.7829895019532	497.8137207031251	-1100.140380859375	-310.4214477539063	501.7908935546876	-983.8314208984377	-308.7682800292969	357.5846862792969	-1017.633422851563	-328.3595886230469	298.9797668457032	-1081.780517578125	-301.8755187988282	304.5099487304688	-1042.542358398438	-322.2076416015626	231.4559478759766	-1005.975463867188	-383.3906860351563	108.4425888061524	-1052.906127929688	-358.5847473144532	120.0658111572266	-972.4773559570315	-441.8864746093751	96.31865692138675	-1005.817321777344	-240.4701690673829	51.28811645507814	-992.3303833007815	-234.6255645751954	51.07485580444337	-1031.04248046875	-259.1999206542969	45.73654556274415	-1081.123413085938	-298.3634338378907	711.9311523437501	-792.6538696289065	-242.3967895507813	673.6499023437501	-784.689880371094	-210.7317047119141	686.3283081054689	-792.5943603515627	-238.7743072509766	590.9339599609376	-796.494812011719	-224.1911926269532	542.0601806640626	-801.1140747070315	-190.6233825683594	530.9017333984376	-909.0164794921877	-216.9961395263672	405.7506713867189	-809.2586669921877	-312.3786926269532	353.7506408691407	-798.4617919921877	-268.4707641601563	336.1441040039063	-800.994812011719	-265.6986389160157	286.7288513183594	-832.9460449218752	-375.4893188476563	171.4070739746094	-814.8582153320315	-332.1870422363282	178.8601684570313	-890.6265258789065	-426.8084411621095	169.5247344970703	-869.0232543945315	-240.6069946289063	81.75729370117189	-862.3624267578127	-240.5762786865235	81.33714294433595	-815.8269042968752	-282.7646484375001	70.5602493286133	-770.4362792968752	
